<?xml version="1.0" encoding="UTF-8"?>
<svg xmlns="http://www.w3.org/2000/svg" style="display: none;">
    <symbol id="icon-cart" viewBox="0 0 24 24">
        <path d="M7 18c-1.1 0-1.99.9-1.99 2S5.9 22 7 22s2-.9 2-2-.9-2-2-2zM1 2v2h2l3.6 7.59-1.35 2.45c-.16.28-.25.61-.25.96 0 1.1.9 2 2 2h12v-2H7.42c-.14 0-.25-.11-.25-.25l.03-.12.9-1.63h7.45c.75 0 1.41-.41 1.75-1.03l3.58-6.49c.08-.14.12-.31.12-.48 0-.55-.45-1-1-1H5.21l-.94-2H1zm16 16c-1.1 0-1.99.9-1.99 2s.89 2 1.99 2 2-.9 2-2-.9-2-2-2z"/>
    </symbol>
    <symbol id="icon-heart" viewBox="0 0 24 24">
        <path d="M12 21.35l-1.45-1.32C5.4 15.36 2 12.28 2 8.5 2 5.42 4.42 3 7.5 3c1.74 0 3.41.81 4.5 2.09C13.09 3.81 14.76 3 16.5 3 19.58 3 22 5.42 22 8.5c0 3.78-3.4 6.86-8.55 11.54L12 21.35z"/>
    </symbol>
    <symbol id="icon-heart-outline" viewBox="0 0 24 24">
        <path d="M16.5 3c-1.74 0-3.41.81-4.5 2.09C10.91 3.81 9.24 3 7.5 3 4.42 3 2 5.42 2 8.5c0 3.78 3.4 6.86 8.55 11.54L12 21.35l1.45-1.32C18.6 15.36 22 12.28 22 8.5 22 5.42 19.58 3 16.5 3zm-4.4 15.55l-.1.1-.1-.1C7.14 14.24 4 11.39 4 8.5 4 6.5 5.5 5 7.5 5c1.54 0 3.04.99 3.57 2.36h1.87C13.46 5.99 14.96 5 16.5 5c2 0 3.5 1.5 3.5 3.5 0 2.89-3.14 5.74-7.9 10.05z"/>
    </symbol>
    <symbol id="icon-search" viewBox="0 0 24 24">
        <path d="M21.71 20.29L18 16.61A9 9 0 1 0 16.61 18l3.68 3.68a1 1 0 0 0 1.42 0 1 1 0 0 0 0-1.39zM11 18a7 7 0 1 1 7-7 7 7 0 0 1-7 7z"/>
    </symbol>
		<symbol id="icon-menu" viewBox="0 0 24 24">
    <path d="M3 4h18v2H3V4zm0 7h18v2H3v-2zm0 7h18v2H3v-2z"/>
</symbol>
<symbol id="icon-about" viewBox="0 0 24 24">
    <path d="M12 2C6.48 2 2 6.48 2 12s4.48 10 10 10 10-4.48 10-10S17.52 2 12 2zm1 15h-2v-6h2v6zm0-8h-2V7h2v2z"/>
</symbol>

<symbol id="icon-article" viewBox="0 0 24 24">
    <path d="M19 3H5c-1.1 0-2 .9-2 2v14c0 1.1.9 2 2 2h14c1.1 0 2-.9 2-2V5c0-1.1-.9-2-2-2zm-5 14H7v-2h7v2zm3-4H7v-2h10v2zm0-4H7V7h10v2z"/>
</symbol>
<symbol id="icon-wash-30" viewBox="0 0 24 24">
    <circle cx="12" cy="12" r="9" fill="none" stroke="currentColor" stroke-width="2"/>
    <text x="12" y="14" text-anchor="middle" font-size="8" fill="currentColor">30°</text>
</symbol>

<symbol id="icon-no-bleach" viewBox="0 0 24 24">
    <path d="M12 2L2 20h20L12 2zm1 15h-2v-2h2v2zm0-4h-2V8h2v5z"/>
</symbol>

<symbol id="icon-iron-low" viewBox="0 0 24 24">
    <path d="M21 6c-1.66 0-3 1.34-3 3v4c0 .55-.45 1-1 1v-4c0-1.66-1.34-3-3-3h-4c-1.66 0-3 1.34-3 3h2c0-.55.45-1 1-1h4c.55 0 1 .45 1 1v1h-7c-1.1 0-2 .9-2 2v4h14v-4c0-.55.45-1 1-1s1 .45 1 1v4h2v-4C24 7.34 22.66 6 21 6z"/>
    <text x="12" y="18" text-anchor="middle" font-size="6" fill="currentColor">LOW</text>
</symbol>

<symbol id="icon-no-tumble" viewBox="0 0 24 24">
    <circle cx="12" cy="12" r="9" fill="none" stroke="currentColor" stroke-width="2"/>
    <line x1="4" y1="20" x2="20" y2="4" stroke="currentColor" stroke-width="2"/>
    <path d="M12 7v10M7 12h10" stroke="currentColor" stroke-width="2"/>
</symbol>
    <symbol id="icon-calendar" viewBox="0 0 24 24">
        <path d="M19 3h-1V1h-2v2H8V1H6v2H5c-1.11 0-1.99.9-1.99 2L3 19c0 1.1.89 2 2 2h14c1.1 0 2-.9 2-2V5c0-1.1-.9-2-2-2zm0 16H5V8h14v11zM7 10h5v5H7z"/>
    </symbol>
    <symbol id="icon-eye" viewBox="0 0 24 24">
        <path d="M12 4.5C7 4.5 2.73 7.61 1 12c1.73 4.39 6 7.5 11 7.5s9.27-3.11 11-7.5c-1.73-4.39-6-7.5-11-7.5zM12 17c-2.76 0-5-2.24-5-5s2.24-5 5-5 5 2.24 5 5-2.24 5-5 5zm0-8c-1.66 0-3 1.34-3 3s1.34 3 3 3 3-1.34 3-3-1.34-3-3-3z"/>
    </symbol>
    <symbol id="icon-user" viewBox="0 0 24 24">
        <path d="M12 12c2.21 0 4-1.79 4-4s-1.79-4-4-4-4 1.79-4 4 1.79 4 4 4zm0 2c-2.67 0-8 1.34-8 4v2h16v-2c0-2.66-5.33-4-8-4z"/>
    </symbol>
    <symbol id="icon-close" viewBox="0 0 24 24">
        <path d="M19 6.41L17.59 5 12 10.59 6.41 5 5 6.41 10.59 12 5 17.59 6.41 19 12 13.41 17.59 19 19 17.59 13.41 12z"/>
    </symbol>
    <symbol id="icon-plus" viewBox="0 0 24 24">
        <path d="M19 13h-6v6h-2v-6H5v-2h6V5h2v6h6v2z"/>
    </symbol>
    <symbol id="icon-minus" viewBox="0 0 24 24">
        <path d="M19 13H5v-2h14v2z"/>
    </symbol>
    <symbol id="icon-instagram" viewBox="0 0 24 24">
        <path d="M12 2.163c3.204 0 3.584.012 4.85.07 3.252.148 4.771 1.691 4.919 4.919.058 1.265.069 1.645.069 4.849 0 3.205-.012 3.584-.069 4.849-.149 3.225-1.664 4.771-4.919 4.919-1.266.058-1.644.07-4.85.07-3.204 0-3.584-.012-4.849-.07-3.26-.149-4.771-1.699-4.919-4.92-.058-1.265-.07-1.644-.07-4.849 0-3.204.013-3.583.07-4.849.149-3.227 1.664-4.771 4.919-4.919 1.266-.057 1.645-.069 4.849-.069zm0-2.163c-3.259 0-3.667.014-4.947.072-4.358.2-6.78 2.618-6.98 6.98-.059 1.281-.073 1.689-.073 4.948 0 3.259.014 3.668.072 4.948.2 4.358 2.618 6.78 6.98 6.98 1.281.058 1.689.072 4.948.072 3.259 0 3.668-.014 4.948-.072 4.354-.2 6.782-2.618 6.979-6.98.059-1.28.073-1.689.073-4.948 0-3.259-.014-3.667-.072-4.947-.196-4.354-2.617-6.78-6.979-6.98-1.281-.059-1.69-.073-4.949-.073zm0 5.838c-3.403 0-6.162 2.759-6.162 6.162s2.759 6.163 6.162 6.163 6.162-2.759 6.162-6.163c0-3.403-2.759-6.162-6.162-6.162zm0 10.162c-2.209 0-4-1.79-4-4 0-2.209 1.791-4 4-4s4 1.791 4 4c0 2.21-1.791 4-4 4zm6.406-11.845c-.796 0-1.441.645-1.441 1.44s.645 1.44 1.441 1.44c.795 0 1.439-.645 1.439-1.44s-.644-1.44-1.439-1.44z"/>
    </symbol>
    <symbol id="icon-facebook" viewBox="0 0 24 24">
        <path d="M18.77 7.46H14.5v-1.9c0-.9.6-1.1 1-1.1h3V.5h-4.33C10.24.5 9.5 3.44 9.5 5.32v2.15h-3v4h3v12h5v-12h3.85l.42-4z"/>
    </symbol>
    <symbol id="icon-telegram" viewBox="0 0 24 24">
        <path d="M9.78 18.65l.28-4.23 7.68-6.92c.34-.31-.07-.46-.52-.19L7.74 13.3 3.64 12c-.88-.25-.89-.86.2-1.3l15.97-6.16c.73-.33 1.43.18 1.15 1.3l-2.72 12.81c-.19.91-.74 1.13-1.5.71L12.6 16.3l-1.99 1.93c-.23.23-.42.42-.83.42z"/>
    </symbol>
    <symbol id="icon-vk" viewBox="0 0 24 24">
        <path d="M21.547 7h-3.29a.743.743 0 0 0-.655.392s-1.312 2.416-1.734 3.23C14.734 12.813 14 12.126 14 11.11V7.603A1.104 1.104 0 0 0 12.896 6.5h-2.474a1.982 1.982 0 0 0-1.75.813s1.255-.204 1.255 1.49c0 .42.022 1.626.04 2.64a.73.73 0 0 1-1.272.503 21.54 21.54 0 0 1-2.498-4.543.693.693 0 0 0-.63-.403h-2.99a.508.508 0 0 0-.48.685C3.005 10.175 6.918 18 11.38 18h1.878a.742.742 0 0 0 .742-.742v-1.135a.73.73 0 0 1 1.23-.53l2.247 2.112a1.09 1.09 0 0 0 .746.295h2.953c1.424 0 1.424-.988.647-1.753-.546-.538-2.518-2.617-2.518-2.617a1.02 1.02 0 0 1-.078-1.323c.637-.84 1.68-2.212 2.122-2.8.603-.804 1.697-2.507.197-2.507z"/>
    </symbol>
    <symbol id="icon-map" viewBox="0 0 24 24">
        <path d="M12 2C8.13 2 5 5.13 5 9c0 5.25 7 13 7 13s7-7.75 7-13c0-3.87-3.13-7-7-7zm0 9.5c-1.38 0-2.5-1.12-2.5-2.5s1.12-2.5 2.5-2.5 2.5 1.12 2.5 2.5-1.12 2.5-2.5 2.5z"/>
    </symbol>
    <symbol id="icon-phone" viewBox="0 0 24 24">
        <path d="M6.62 10.79c1.44 2.83 3.76 5.14 6.59 6.59l2.2-2.2c.27-.27.67-.36 1.02-.24 1.12.37 2.33.57 3.57.57.55 0 1 .45 1 1V20c0 .55-.45 1-1 1-9.39 0-17-7.61-17-17 0-.55.45-1 1-1h3.5c.55 0 1 .45 1 1 0 1.25.2 2.45.57 3.57.11.35.03.74-.25 1.02l-2.2 2.2z"/>
    </symbol>
    <symbol id="icon-mail" viewBox="0 0 24 24">
        <path d="M20 4H4c-1.1 0-1.99.9-1.99 2L2 18c0 1.1.9 2 2 2h16c1.1 0 2-.9 2-2V6c0-1.1-.9-2-2-2zm0 4l-8 5-8-5V6l8 5 8-5v2z"/>
    </symbol>
    <symbol id="icon-clock" viewBox="0 0 24 24">
        <path d="M11.99 2C6.47 2 2 6.48 2 12s4.47 10 9.99 10C17.52 22 22 17.52 22 12S17.52 2 11.99 2zM12 20c-4.42 0-8-3.58-8-8s3.58-8 8-8 8 3.58 8 8-3.58 8-8 8zm.5-13H11v6l5.25 3.15.75-1.23-4.5-2.67z"/>
    </symbol>
    <symbol id="icon-share" viewBox="0 0 24 24">
        <path d="M18 16.08c-.76 0-1.44.3-1.96.77L8.91 12.7c.05-.23.09-.46.09-.7s-.04-.47-.09-.7l7.05-4.11c.54.5 1.25.81 2.04.81 1.66 0 3-1.34 3-3s-1.34-3-3-3-3 1.34-3 3c0 .24.04.47.09.7L8.04 9.81C7.5 9.31 6.79 9 6 9c-1.66 0-3 1.34-3 3s1.34 3 3 3c.79 0 1.5-.31 2.04-.81l7.12 4.16c-.05.21-.08.43-.08.65 0 1.61 1.31 2.92 2.92 2.92 1.61 0 2.92-1.31 2.92-2.92s-1.31-2.92-2.92-2.92z"/>
    </symbol>
    <symbol id="icon-star" viewBox="0 0 24 24">
        <path d="M12 17.27L18.18 21l-1.64-7.03L22 9.24l-7.19-.61L12 2 9.19 8.63 2 9.24l5.46 4.73L5.82 21z"/>
    </symbol>
    <symbol id="icon-star-outline" viewBox="0 0 24 24">
        <path d="M22 9.24l-7.19-.62L12 2 9.19 8.63 2 9.24l5.46 4.73L5.82 21 12 17.27 18.18 21l-1.63-7.03L22 9.24zM12 15.4l-3.76 2.27 1-4.28-3.32-2.88 4.38-.38L12 6.1l1.71 4.04 4.38.38-3.32 2.88 1 4.28L12 15.4z"/>
    </symbol>
    <symbol id="icon-check" viewBox="0 0 24 24">
        <path d="M9 16.17L4.83 12l-1.42 1.41L9 19 21 7l-1.41-1.41z"/>
    </symbol>
    <symbol id="icon-wash" viewBox="0 0 24 24">
        <path d="M12 2C6.48 2 2 6.48 2 12s4.48 10 10 10 10-4.48 10-10S17.52 2 12 2zm0 18c-4.41 0-8-3.59-8-8s3.59-8 8-8 8 3.59 8 8-3.59 8-8 8zm-1-13h2v6h-2zm0 8h2v2h-2z"/>
    </symbol>
    <symbol id="icon-bleach" viewBox="0 0 24 24">
        <path d="M12 2C6.48 2 2 6.48 2 12s4.48 10 10 10 10-4.48 10-10S17.52 2 12 2zm0 18c-4.42 0-8-3.58-8-8 0-4.42 3.58-8 8-8s8 3.58 8 8c0 4.42-3.58 8-8 8z"/>
    </symbol>
    <symbol id="icon-iron" viewBox="0 0 24 24">
        <path d="M21 6c-1.66 0-3 1.34-3 3v4c0 .55-.45 1-1 1v-4c0-1.66-1.34-3-3-3h-4c-1.66 0-3 1.34-3 3v4c0 .55-.45 1-1 1v-4c0-1.66-1.34-3-3-3H3c-1.66 0-3 1.34-3 3v4c0 .55.45 1 1 1h20c.55 0 1-.45 1-1v-4c0-1.66-1.34-3-3-3z"/>
    </symbol>
    <symbol id="icon-dry" viewBox="0 0 24 24">
        <path d="M12 2C6.48 2 2 6.48 2 12s4.48 10 10 10 10-4.48 10-10S17.52 2 12 2zm0 18c-4.42 0-8-3.58-8-8 0-4.42 3.58-8 8-8s8 3.58 8 8c0 4.42-3.58 8-8 8z"/>
    </symbol>
    <symbol id="icon-arrow-prev" viewBox="0 0 24 24">
        <path d="M15.41 7.41L14 6l-6 6 6 6 1.41-1.41L10.83 12z"/>
    </symbol>
    <symbol id="icon-arrow-next" viewBox="0 0 24 24">
        <path d="M10 6L8.59 7.41 13.17 12l-4.58 4.59L10 18l6-6z"/>
    </symbol>
    <symbol id="icon-medal" viewBox="0 0 24 24">
        <path d="M12 1L3 5v6c0 5.55 3.84 10.74 9 12 5.16-1.26 9-6.45 9-12V5l-9-4zm0 2.18l7 3.12v4.7c0 4.38-2.85 8.51-7 9.79-4.15-1.28-7-5.41-7-9.79V6.3l7-3.12z"/>
        <path d="M12 7c-2.76 0-5 2.24-5 5s2.24 5 5 5 5-2.24 5-5-2.24-5-5-5zm0 8c-1.65 0-3-1.35-3-3s1.35-3 3-3 3 1.35 3 3-1.35 3-3 3z"/>
    </symbol>
    <symbol id="icon-shield" viewBox="0 0 24 24">
        <path d="M12 1L3 5v6c0 5.55 3.84 10.74 9 12 5.16-1.26 9-6.45 9-12V5l-9-4zm0 2.18l7 3.12v4.7c0 4.38-2.85 8.51-7 9.79-4.15-1.28-7-5.41-7-9.79V6.3l7-3.12zm-2 9.82h4v2h-4v-2zm0-4h4v2h-4v-2z"/>
    </symbol>
    <symbol id="icon-truck" viewBox="0 0 24 24">
        <path d="M20 8h-3V4H3c-1.1 0-2 .9-2 2v11h2c0 1.66 1.34 3 3 3s3-1.34 3-3h6c0 1.66 1.34 3 3 3s3-1.34 3-3h2v-5l-3-4zM6 18.5c-.83 0-1.5-.67-1.5-1.5s.67-1.5 1.5-1.5 1.5.67 1.5 1.5-.67 1.5-1.5 1.5zm13.5-9l1.96 2.5H17V9.5h2.5zm-1.5 9c-.83 0-1.5-.67-1.5-1.5s.67-1.5 1.5-1.5 1.5.67 1.5 1.5-.67 1.5-1.5 1.5z"/>
    </symbol>
    <symbol id="icon-quality" viewBox="0 0 24 24">
        <path d="M19.77 5.03l1.4 1.4L8.43 19.17l-5.6-5.6 1.4-1.4 4.2 4.2L19.77 5.03m0-2.83L8.43 13.54l-4.2-4.2L0 13.57 8.43 22 24 6.43 19.77 2.2z"/>
    </symbol>
    <symbol id="icon-heart-fill" viewBox="0 0 24 24">
        <path d="M12 21.35l-1.45-1.32C5.4 15.36 2 12.28 2 8.5 2 5.42 4.42 3 7.5 3c1.74 0 3.41.81 4.5 2.09C13.09 3.81 14.76 3 16.5 3 19.58 3 22 5.42 22 8.5c0 3.78-3.4 6.86-8.55 11.54L12 21.35z"/>
    </symbol>
    <symbol id="icon-chat" viewBox="0 0 24 24">
        <path d="M20 2H4c-1.1 0-2 .9-2 2v18l4-4h14c1.1 0 2-.9 2-2V4c0-1.1-.9-2-2-2zm0 14H6l-2 2V4h16v12z"/>
        <path d="M6 12h12v2H6zm0-3h12v2H6zm0-3h12v2H6z"/>
    </symbol>
</svg> 